# Blender v2.91.0 OBJ File: 'untitled.blend'
# www.blender.org
mtllib bevel.mtl
o Cube
v 1.000000 1.000000 2.036383
v 1.000000 1.000000 -1.000000
v 1.000000 -1.000000 2.036383
v 1.000000 -1.000000 -1.000000
v -1.000000 1.000000 1.000000
v -1.000000 1.000000 -1.000000
v -1.000000 -1.000000 1.000000
v -1.000000 -1.000000 -1.000000
vt 0.000000 0.000000
vt 1.000000 1.000000
vt 0.000000 1.000000
vt 0.000000 0.000000
vt 1.000000 0.000000
vt 1.000000 1.000000
vt 0.000000 0.000000
vt 1.000000 0.000000
vt 1.000000 0.000000
vt 0.000000 1.000000
vt 1.000000 1.000000
vt 0.000000 0.000000
vt 1.000000 1.000000
vt 0.000000 0.000000
vt 1.000000 0.000000
vt 1.000000 0.000000
vt 0.000000 1.000000
vt 0.000000 1.000000
vt 1.000000 1.000000
vt 0.000000 1.000000
vn -0.6792 0.6067 0.4130
vn 0.4317 -0.5563 0.7100
vn 0.4317 0.5563 0.7100
vn -0.5773 -0.5773 -0.5773
vn 0.5773 -0.5773 -0.5773
vn -0.6792 -0.6067 0.4130
vn -0.5773 0.5773 -0.5773
vn 0.5773 0.5773 -0.5773
usemtl Material.001
s 1
f 5/1/1 3/2/2 1/3/3
f 3/2/2 8/4/4 4/5/5
f 7/6/6 6/7/7 8/8/4
f 2/9/8 8/10/4 6/7/7
f 1/11/3 4/12/5 2/9/8
f 5/13/1 2/14/8 6/15/7
f 5/1/1 7/16/6 3/2/2
f 3/2/2 7/17/6 8/4/4
f 7/6/6 5/18/1 6/7/7
f 2/9/8 4/19/5 8/10/4
f 1/11/3 3/20/2 4/12/5
f 5/13/1 1/3/3 2/14/8
