# Blender v2.91.0 OBJ File: ''
# www.blender.org
mtllib CatWalk.mtl
o Cube.001
v -15.957226 1.000003 -15.368330
v 15.957226 0.999997 15.368330
v 15.957226 1.000003 -15.368330
v -15.957226 -1.000003 15.368330
v 15.957226 -1.000003 15.368330
v -15.957226 0.999997 15.368330
v -15.957226 -0.999997 -15.368330
v 15.957226 -0.999997 -15.368330
vt 1.000000 0.000000
vt 0.004357 1.005354
vt 1.000000 1.000000
vt 0.000000 0.000000
vt 1.001522 1.005354
vt 1.001522 0.005354
vt -0.000892 0.005354
vt 1.000630 1.000000
vt 1.000630 0.000000
vt 0.006142 0.005354
vt 1.003569 1.000000
vt 0.006142 1.005354
vt 0.999737 0.000000
vt -0.003569 1.005354
vt -0.003569 0.005354
vt 0.002310 0.000000
vt 1.000892 1.005354
vt 1.000892 0.005354
vt 0.004357 0.005354
vt 0.000000 1.000000
vt -0.000892 1.005354
vt 1.003569 0.000000
vt 0.999737 1.000000
vt 0.002310 1.000000
vn 0.0000 1.0000 0.0000
vn 0.0000 0.0000 1.0000
vn -1.0000 0.0000 0.0000
vn 0.0000 -1.0000 -0.0000
vn 1.0000 0.0000 0.0000
vn 0.0000 0.0000 -1.0000
usemtl Material.002
s 1
f 1/1/1 2/2/1 3/3/1
f 2/4/2 4/5/2 5/6/2
f 6/7/3 7/8/3 4/9/3
f 8/10/4 4/11/4 7/12/4
f 3/13/5 5/14/5 8/15/5
f 1/16/6 8/17/6 7/18/6
f 1/1/1 6/19/1 2/2/1
f 2/4/2 6/20/2 4/5/2
f 6/7/3 1/21/3 7/8/3
f 8/10/4 5/22/4 4/11/4
f 3/13/5 2/23/5 5/14/5
f 1/16/6 3/24/6 8/17/6
