# Blender v2.91.0 OBJ File: 'untitled.blend'
# www.blender.org
mtllib HyperRotatedTexturedCube.mtl
o Cube
v 0.000742 1.666254 -0.022329
v 1.533064 0.717317 -0.022329
v -0.673987 0.576719 1.245009
v 0.858335 -0.372219 1.245009
v -0.666509 0.588793 -1.303870
v 0.865813 -0.360144 -1.303870
v -1.341237 -0.500742 -0.036532
v 0.191084 -1.449680 -0.036532
vt 0.002643 1.002629
vt 0.997357 -0.002629
vt -0.002629 0.002643
vt 0.000000 1.000000
vt 1.000000 0.000000
vt 0.000000 0.000000
vt 0.000000 1.000000
vt 1.000000 0.000000
vt 0.000000 0.000000
vt 0.000000 0.000000
vt 1.000000 1.000000
vt 0.000000 1.000000
vt 1.000000 0.000000
vt 0.000000 1.000000
vt 1.000000 0.000000
vt 0.000000 0.000000
vt 1.002629 0.997357
vt 1.000000 1.000000
vt 1.000000 1.000000
vt 0.000000 1.000000
vt 1.000000 1.000000
vt 1.000000 1.000000
vn -0.4884 0.3078 -0.8165
vn -0.4932 0.3001 0.8165
vn -0.0609 0.9981 0.0045
vn 0.0609 -0.9981 -0.0045
vn 0.4884 -0.3078 0.8165
vn -0.9207 -0.3902 -0.0045
vn 0.4932 -0.3001 -0.8165
vn 0.9207 0.3902 0.0045
usemtl Material.001
s 1
f 5/1/1 3/2/2 1/3/3
f 3/4/2 8/5/4 4/6/5
f 7/7/6 6/8/7 8/9/4
f 2/10/8 8/11/4 6/8/7
f 1/12/3 4/13/5 2/10/8
f 5/14/1 2/15/8 6/16/7
f 5/1/1 7/17/6 3/2/2
f 3/4/2 7/18/6 8/5/4
f 7/7/6 5/19/1 6/8/7
f 2/10/8 4/20/5 8/11/4
f 1/12/3 3/21/2 4/13/5
f 5/14/1 1/22/3 2/15/8
