# Blender v2.91.0 OBJ File: ''
# www.blender.org
mtllib cube.mtl
o Cube
v 1.000000 1.000000 -1.000000
v 1.000000 -1.000000 -1.000000
v 1.000000 1.000000 1.000000
v 1.000000 -1.000000 1.000000
v -1.000000 1.000000 -1.000000
v -1.000000 -1.000000 -1.000000
v -1.000000 1.000000 1.000000
v -1.000000 -1.000000 1.000000
vt 1.000000 0.000000
vt 0.004357 1.005354
vt 1.000000 1.000000
vt 0.000000 0.000000
vt 1.001522 1.005354
vt 1.001522 0.005354
vt -0.000892 0.005354
vt 1.000630 1.000000
vt 1.000630 0.000000
vt 0.006142 0.005354
vt 1.003569 1.000000
vt 0.006142 1.005354
vt 0.999737 0.000000
vt -0.003569 1.005354
vt -0.003569 0.005354
vt 0.002310 0.000000
vt 1.000892 1.005354
vt 1.000892 0.005354
vt 0.004357 0.005354
vt 0.000000 1.000000
vt -0.000892 1.005354
vt 1.003569 0.000000
vt 0.999737 1.000000
vt 0.002310 1.000000
vn 0.0000 1.0000 0.0000
vn 0.0000 0.0000 1.0000
vn -1.0000 0.0000 0.0000
vn 0.0000 -1.0000 0.0000
vn 1.0000 0.0000 0.0000
vn 0.0000 0.0000 -1.0000
usemtl Material
s off
f 5/1/1 3/2/1 1/3/1
f 3/4/2 8/5/2 4/6/2
f 7/7/3 6/8/3 8/9/3
f 2/10/4 8/11/4 6/12/4
f 1/13/5 4/14/5 2/15/5
f 5/16/6 2/17/6 6/18/6
f 5/1/1 7/19/1 3/2/1
f 3/4/2 7/20/2 8/5/2
f 7/7/3 5/21/3 6/8/3
f 2/10/4 4/22/4 8/11/4
f 1/13/5 3/23/5 4/14/5
f 5/16/6 1/24/6 2/17/6
